<?xml version="1.0" encoding="UTF-8"?> <!-- Generator: Adobe Illustrator 24.0.1, SVG Export Plug-In . SVG Version: 6.00 Build 0) --> <svg xmlns="http://www.w3.org/2000/svg" xmlns:xlink="http://www.w3.org/1999/xlink" version="1.1" id="Calque_1" x="0px" y="0px" viewBox="0 0 1115.1 267.1" style="enable-background:new 0 0 1115.1 267.1;" xml:space="preserve"> <style type="text/css"> .st0{fill:#141644;} .st1{enable-background:new ;} .st2{fill:none;stroke:#141644;stroke-width:3;stroke-miterlimit:10;} </style> <title>Fichier 1</title> <g id="Layer_1"> <g id="XMLID_1_"> <g> <polygon class="st0" points="955.5,65.1 955.5,98.3 916.6,98.3 916.5,139.9 885.7,139.7 885.7,23.5 955.5,23.7 955.5,56.9 916.6,56.9 916.6,65.1 "></polygon> </g> </g> <g id="XMLID_2_"> <g> <polygon class="st0" points="1049.8,81.2 1085.1,139.9 1039.6,139.9 1027.3,119.4 1015.1,139.9 970.1,139.9 1004.5,81.5 969.7,23.4 1015.1,23.4 1027.1,43.5 1039,23.4 1084,23.4 "></polygon> </g> </g> <g class="st1"> <g id="XMLID_14_"> <g> <path class="st0" d="M378.5,77.6c0.1,0.1,0.1,0.1,0.1,0.2v2.6c0,0.1,0,0.2-0.1,0.2h-63.1v56.2c0,0.1-0.1,0.2-0.2,0.2h-3 c-0.1,0-0.2,0-0.2-0.2V24.2c0-0.1,0.1-0.1,0.2-0.1h66.2c0.1,0,0.1,0,0.1,0.1v2.5c0,0.1,0,0.2-0.1,0.2h-63.1v50.8L378.5,77.6 L378.5,77.6z"></path> </g> </g> <g id="XMLID_12_"> <g> <path class="st0" d="M452,82.3h-28l-12.7,44.4c-0.1,0.1-1,3.5-3,10.2l-0.2,0.1H405l-0.2-0.1c12.8-44.5,21.9-75.9,27.1-94.3 c3.7-12.9,5.7-19.8,6-20.7l24.4,84.4l8.7,30.6l-0.2,0.1h-3.1c-0.2,0-0.6-1.2-1.2-3.6C457.6,101.9,452.7,84.9,452,82.3z M451.2,79.4L451.2,79.4L438,33.6l-13.2,45.8C424.8,79.4,451.2,79.4,451.2,79.4z"></path> </g> </g> <g id="XMLID_13_"> <g> <path class="st0" d="M542.7,134.1c5.5,0,10.3-2,14.2-6.1c2.5-2.9,3.7-6,3.7-9.4v-15.4c0-0.1,0.1-0.2,0.2-0.2h3 c0.1,0,0.2,0,0.2,0.2v15.6c0,4.6-2.1,8.8-6.3,12.6c-4.6,3.6-9.6,5.4-15.1,5.4h-0.2V134C542.5,134.1,542.6,134.1,542.7,134.1z"></path> <path class="st0" d="M542.7,24.3c6.1,0,11.5,2.2,16,6.5c3.5,3.6,5.3,7.7,5.3,12.4v14.7c0,0.1-0.1,0.1-0.2,0.1h-3 c-0.1,0-0.2,0-0.2-0.1v-15c0-6-3.4-10.7-10.2-14.1c-2.7-1.1-5.4-1.6-8.2-1.6h-22.9c-6.6,0-12,2.7-16.2,8.1 c-1.5,2.4-2.2,5-2.2,7.6v75.8c0,5.6,3.1,10.1,9.2,13.5c2.9,1.3,5.9,2,8.9,2h23.3c0.1,0,0.1,0,0.1,0.1v2.8h-23.8 c-5.5,0-10.7-2-15.4-6c-3.8-3.7-5.7-7.7-5.7-12V43.2c0-6.5,3.1-11.7,9.4-15.7c3.8-2.1,7.6-3.2,11.6-3.2H542.7z"></path> </g> </g> <g id="XMLID_15_"> <g> <path class="st0" d="M625.2,26.9v109.8c0,0.1-0.1,0.2-0.2,0.2h-3c-0.1,0-0.2,0-0.2-0.2V26.9h-31.4c-0.1,0-0.2-0.1-0.2-0.2v-2.5 c0-0.1,0.1-0.1,0.2-0.1h66.1c0.1,0,0.2,0,0.2,0.1v2.5c0,0.1-0.1,0.2-0.2,0.2H625.2z"></path> </g> </g> <g id="XMLID_16_"> <g> <path class="st0" d="M729.3,24.3c3.5,0.4,6.1,1,8,1.8c5.3,2.4,8.9,5.9,10.9,10.6c0.8,1.8,1.2,3.8,1.2,5.8v76.3 c0,6.3-3.5,11.5-10.4,15.6c-3.7,1.7-7.3,2.6-11,2.6h-0.5v-2.8c5,0,9.3-1.5,13-4.5c3.6-3.1,5.4-6.8,5.4-11v-76 c0-5.3-2.7-9.6-8.2-13c-3-1.7-6.4-2.5-10.2-2.5h-2.2v-2.8C726.4,24.3,727.7,24.3,729.3,24.3z"></path> <path class="st0" d="M707,24.3h18.4v2.8h-20.5c-5.1,0-9.4,1.5-13,4.5c-3.7,3.1-5.5,6.8-5.5,11v76c0,4.2,1.8,7.8,5.4,10.9 c3.6,3,8,4.6,13.1,4.6h22.8v2.8h-23.3c-6.9,0-12.7-2.6-17.5-7.8c-2.5-3.4-3.8-6.8-3.8-10.4V42.4c0-6.3,3.4-11.5,10.2-15.5 c3.7-1.7,6.9-2.6,9.7-2.6v-0.1C704.7,24.3,706.1,24.3,707,24.3z"></path> </g> </g> <g id="XMLID_17_"> <g> <path class="st0" d="M822.6,78.9c5.1-0.5,9.4-2.7,12.9-6.6c2.2-2.8,3.4-5.7,3.4-8.6c0.1,0,0.3-0.1,0.5-0.1v-0.1 c-0.3,0-0.5,0-0.5-0.2V43.5c0-4.9-1.6-8.7-4.7-11.4c-1.6-1.5-3.2-2.6-4.7-3.3c-3.1-1.3-6-2-8.8-2V24h0.3c6.9,0,12.7,2.7,17.6,8 c2.5,3.3,3.8,6.7,3.8,10.2v21.5c0,6.1-3.2,11.1-9.7,15.1c-2.7,1.6-6,2.6-9.7,3L822.6,78.9z"></path> <path class="st0" d="M820.4,79c0.8,0,1.5,0,2.2-0.1l0.3,2.9c-1.1,0.1-2.3,0.2-3.5,0.2h-18.9l41.7,54.8v0.2h-3.9 c-1.1-1.5-15.8-20.8-44.1-57.9l0.2-0.1H820.4z"></path> <path class="st0" d="M775.9,24h44.8v2.8c-0.1,0-0.2,0-0.2,0.1l-0.9-0.1h-40.5v109.9c0,0.1-0.1,0.2-0.2,0.2h-3 c-0.1,0-0.2,0-0.2-0.2V24.2C775.7,24.1,775.8,24,775.9,24z"></path> </g> </g> </g> <g id="XMLID_11_"> <g> <rect x="313" y="162" class="st0" width="778.6" height="2.9"></rect> </g> </g> <g class="st1"> <g id="XMLID_18_"> <g> <path class="st0" d="M1085.9,215.3C1085.9,215.4,1086,215.4,1085.9,215.3l0.1,1.2c0,0,0,0-0.1,0H1059v24.1h26.9 c0,0,0.1,0,0.1,0.1v1.1c0,0.1,0,0.1-0.1,0.1h-28.2c-0.1,0-0.1,0-0.1-0.1v-50.6c0-0.1,0-0.1,0.1-0.1h28.2c0,0,0.1,0,0.1,0.1v1.1 c0,0,0,0.1-0.1,0.1H1059v22.8L1085.9,215.3L1085.9,215.3z"></path> <path class="st0" d="M1044.9,199.6c0-2.7-1.5-4.8-4.4-6.3c-1.1-0.5-2.3-0.8-3.5-0.8h-9.8c-2.8,0-5.1,1.2-6.9,3.7 c-0.6,1.1-1,2.2-1,3.4v34.1c0,2.5,1.3,4.5,3.9,6.1c1.3,0.6,2.5,0.9,3.8,0.9h10l0,0c0.1,0,0.1,0,0.1,0c2.4,0,4.4-0.9,6.1-2.7 c1.1-1.3,1.6-2.7,1.6-4.2v-6.9c0-0.1,0-0.1,0.1-0.1h1.3c0.1,0,0.1,0,0.1,0.1v7c0,2.1-0.9,4-2.7,5.7c-2,1.6-4.1,2.4-6.4,2.4H1027 c-2.4,0-4.6-0.9-6.6-2.7c-1.6-1.7-2.4-3.5-2.4-5.4v-34.1c0-2.9,1.3-5.3,4-7.1c1.6-1,3.3-1.5,5-1.5h10.3c2.6,0,4.9,1,6.8,2.9 c1.5,1.6,2.3,3.5,2.3,5.6v6.6c0,0.1,0,0.1-0.1,0.1h-1.3c-0.1,0-0.1,0-0.1-0.1V199.6L1044.9,199.6z"></path> <path class="st0" d="M997.7,191.1c2.9,0,5.4,1.2,7.5,3.6c1.1,1.5,1.6,3,1.6,4.6v9.7c0,2.7-1.4,5-4.1,6.8 c-1.5,0.9-3.4,1.4-5.6,1.4H989l17.8,24.7v0.1h-1.7c-0.5-0.7-6.8-9.4-18.9-26.1h0.1h11.1c2.6,0,4.8-1,6.5-3 c1-1.3,1.4-2.6,1.4-3.9c0,0,0.1,0,0.2,0l0,0c-0.1,0-0.2,0-0.2-0.1V200c0-2.2-0.7-3.9-2-5.1c-0.7-0.7-1.4-1.2-2-1.5 c-1.3-0.6-2.6-0.9-3.8-0.9c-0.1,0-0.1,0-0.1,0H997h-17.3V242c0,0.1,0,0.1-0.1,0.1h-1.3c0,0-0.1,0-0.1-0.1v-50.7 c0-0.1,0-0.1,0.1-0.1L997.7,191.1L997.7,191.1L997.7,191.1z"></path> <path class="st0" d="M958.2,242h-10c-2.8,0-5.2-1.1-7.3-3.3c-0.9-1.1-1.5-2.3-1.8-3.5l-0.2-0.8c-0.1,0-0.1,0-0.1-0.1v-43.1 c0-0.1,0-0.1,0.1-0.1h1.3c0.1,0,0.1,0,0.1,0.1v42.6c0.1,0,0.1,0.4,0.2,1.2c0.5,1.7,1.3,3,2.5,3.9c1.6,1.1,3.3,1.7,5,1.7l0,0 l0.1,0.1c0,0,0-0.1,0.1-0.1h9.7l0,0c0.1,0,0.1,0,0.1,0c2.4,0,4.4-0.9,6.1-2.7c1.1-1.3,1.6-2.7,1.6-4.3v-42.5 c0-0.1,0-0.1,0.1-0.1h1.3c0,0,0.1,0,0.1,0.1v42.6c0,2.1-0.9,4-2.7,5.7C962.7,241.1,960.5,242,958.2,242z"></path> <path class="st0" d="M903,238.6c1.5,1.4,3.4,2.1,5.6,2.1h9.7c2.1,0,4-0.7,5.6-2c1.5-1.4,2.3-3.1,2.3-5v-34.2 c0-2.4-1.2-4.3-3.5-5.9c-1.3-0.8-2.8-1.1-4.4-1.1h-9.7c-2.2,0-4,0.7-5.6,2c-1.6,1.4-2.3,3.1-2.3,5v34.2 C900.7,235.6,901.5,237.2,903,238.6z M903.6,192.4c1.6-0.8,3-1.2,4.1-1.2l0,0c0.8,0,1.4,0,1.8,0h7.9c0.5,0,1,0,1.7,0 c1.5,0.2,2.6,0.4,3.4,0.8c2.3,1.1,3.8,2.7,4.6,4.8c0.3,0.8,0.5,1.7,0.5,2.6v34.4c0,2.9-1.5,5.2-4.5,7c-1.6,0.8-3.1,1.2-4.7,1.2 h-10.2c-2.9,0-5.4-1.2-7.5-3.5c-1.1-1.5-1.6-3.1-1.6-4.7v-34.4C899.3,196.6,900.7,194.2,903.6,192.4z"></path> <path class="st0" d="M859.6,233.8v-3.2c0-0.1,0-0.1,0.1-0.1h1.3c0.1,0,0.1,0,0.1,0.1v2.5c0,2.2,0.7,4,2.1,5.2 c1.7,1.6,3.6,2.3,5.9,2.3h9.8l0,0h0.1c2.4,0,4.4-0.9,6.1-2.8c1.1-1.3,1.6-2.7,1.6-4.2v-10.2c0-2.6-1.3-4.6-4-6.1 c-1.2-0.6-2.4-0.9-3.6-0.9H879h-0.1h-9.5c-3.5,0-6.3-1.4-8.3-4.2c-0.8-1.3-1.2-2.7-1.2-4v-8.9c0-2.7,1.3-5,3.8-6.8 c1.2-0.8,2.5-1.3,4-1.5l0.8-0.1H879c2.7,0,5,1,6.9,2.9c1.5,1.6,2.3,3.5,2.3,5.6v2.8c0,0.1,0,0.1-0.1,0.1h-1.3 c-0.1,0-0.1,0-0.1-0.1v-3c0-2.7-1.5-4.9-4.4-6.4c-1.1-0.5-2.3-0.8-3.5-0.8h-9.6c-2.7,0-4.9,1.1-6.6,3.2 c-0.8,1.2-1.3,2.4-1.3,3.7v9c0,2.5,1.3,4.5,3.9,6c1.2,0.6,2.7,0.9,4.5,0.9h8.7c0.1,0,0.3,0,0.4,0c2.5,0,4.7,0.9,6.8,2.7 c1.7,1.7,2.5,3.5,2.5,5.5v10.4c0,2.7-1.3,4.9-4,6.7c-1.7,1-3.5,1.5-5.3,1.5H869c-3,0-5.6-1.2-7.8-3.6 C860.2,236.9,859.6,235.4,859.6,233.8z"></path> <path class="st0" d="M823.1,239.2v-47.7l0.1-0.1h1.4c0.1,0,0.1,0,0.1,0.1V245h-0.1c-11.8-22.3-18.3-34.7-19.7-37.3l-7.1-13.4 l0,0v47.9c0,0,0,0.1-0.1,0.1h-1.3c0,0-0.1,0-0.1-0.1v-53.4h0.1l14.6,27.7c0.2,0.4,4.2,7.9,11.9,22.5 C823,238.9,823,239.1,823.1,239.2L823.1,239.2z"></path> <path class="st0" d="M784.9,215.3C785,215.4,785,215.4,784.9,215.3l0.1,1.2c0,0,0,0-0.1,0H758v24.1h26.9c0.1,0,0.1,0,0.1,0.1 v1.1c0,0.1,0,0.1-0.1,0.1h-28.2c0,0-0.1,0-0.1-0.1v-50.6c0-0.1,0-0.1,0.1-0.1h28.2c0.1,0,0.1,0,0.1,0.1v1.1c0,0,0,0.1-0.1,0.1 H758v22.8L784.9,215.3L784.9,215.3z"></path> <path class="st0" d="M743.2,212c0.5-1,0.8-2,0.8-3.1v-9.3c0-2.7-1.5-4.9-4.4-6.4c-1.1-0.5-2.3-0.7-3.5-0.7h-17.7v23.4h17.7l0,0 c1.3-0.1,2.3-0.3,3-0.6C741,214.6,742.3,213.5,743.2,212z M745.4,209.3c0,1.5-0.7,3.1-2,4.7c-2,2.1-4.5,3.2-7.5,3.2h-17.4v24.7 c0,0.1,0,0.1-0.1,0.1h-1.3c0,0-0.1,0-0.1-0.1v-50.6c0-0.1,0-0.1,0.1-0.1h19.2c2.7,0,4.9,1,6.9,2.9c1.5,1.6,2.3,3.5,2.3,5.6v9.6 L745.4,209.3L745.4,209.3z"></path> <path class="st0" d="M696.4,192.5h-9.7c-2.2,0-4,0.7-5.5,2c-1.6,1.4-2.4,3.1-2.4,5v34.2c0,1.9,0.8,3.5,2.3,4.9s3.4,2.1,5.6,2.1 h9.7c2.2,0,4-0.7,5.6-2c1.5-1.4,2.3-3.1,2.3-5v-34.2c0-2.4-1.2-4.3-3.5-5.9C699.5,192.9,698,192.5,696.4,192.5z M687.6,191.3 h7.9c0.5,0,1,0,1.7,0c1.5,0.2,2.6,0.4,3.4,0.8c2.3,1.1,3.8,2.7,4.6,4.8c0.3,0.8,0.5,1.7,0.5,2.6v34.4c0,2.9-1.5,5.2-4.4,7 c-1.6,0.8-3.1,1.2-4.7,1.2h-10.2c-2.9,0-5.4-1.2-7.5-3.5c-1.1-1.5-1.6-3.1-1.6-4.7v-34.4c0-2.8,1.5-5.2,4.4-7 c1.6-0.8,3-1.2,4.1-1.2l0,0C686.7,191.3,687.2,191.3,687.6,191.3z"></path> <path class="st0" d="M623.8,216.5c-3.5,0-6.3-1.4-8.3-4.2c-0.8-1.3-1.2-2.7-1.2-4v-8.9c0-2.7,1.3-5,3.8-6.8 c1.2-0.8,2.5-1.3,4-1.5l0.8-0.1h10.6c2.7,0,5,1,6.9,2.9c1.5,1.6,2.3,3.5,2.3,5.6v2.8c0,0.1,0,0.1-0.1,0.1h-1.3 c0,0-0.1,0-0.1-0.1v-3c0-2.7-1.5-4.9-4.4-6.4c-1.1-0.5-2.3-0.8-3.5-0.8h-9.6c-2.7,0-4.9,1.1-6.6,3.2c-0.8,1.2-1.3,2.4-1.3,3.7v9 c0,2.5,1.3,4.5,3.9,6c1.2,0.6,2.7,0.9,4.5,0.9h8.7c0.1,0,0.3,0,0.4,0c2.5,0,4.7,0.9,6.8,2.7c1.7,1.7,2.5,3.5,2.5,5.5v10.4 c0,2.7-1.3,4.9-4,6.7c-1.7,1-3.4,1.5-5.2,1.5h-9.9c-3,0-5.6-1.2-7.7-3.6c-1.1-1.4-1.7-3-1.7-4.5v-3.2c0-0.1,0-0.1,0.1-0.1h1.3 c0,0,0.1,0,0.1,0.1v2.5c0,2.2,0.7,4,2.1,5.2c1.7,1.6,3.6,2.3,5.9,2.3h9.8l0,0c0,0,0,0,0.1,0c2.4,0,4.4-0.9,6.1-2.8 c1.1-1.3,1.6-2.7,1.6-4.2v-10.2c0-2.6-1.3-4.6-4-6.1c-1.2-0.6-2.4-0.9-3.6-0.9h-0.1h-0.1h-9.6V216.5z"></path> <path class="st0" d="M601.2,239.2v-47.7c0,0,0-0.1,0.1-0.1h1.4c0,0,0.1,0,0.1,0.1V245h-0.1c-11.8-22.3-18.3-34.7-19.7-37.3 l-7.1-13.4l0,0v47.9c0,0,0,0.1-0.1,0.1h-1.3c0,0-0.1,0-0.1-0.1v-53.4h0.1l14.6,27.7c0.2,0.4,4.2,7.9,11.9,22.5 C601.1,238.9,601.2,239.1,601.2,239.2L601.2,239.2z"></path> <path class="st0" d="M554,242h-10.2c-2.9,0-5.4-1.2-7.5-3.5c-1.1-1.5-1.6-3.1-1.6-4.7v-34.4c0-2.8,1.5-5.2,4.4-7 c1.6-0.8,3-1.2,4.1-1.2l0,0c0.8,0,1.4,0,1.8,0h7.9c0.4,0,1,0,1.7,0c1.5,0.2,2.6,0.4,3.4,0.8c2.3,1.1,3.8,2.7,4.6,4.8 c0.3,0.8,0.5,1.7,0.5,2.6v34.4c0,2.9-1.5,5.2-4.5,7C557.1,241.6,555.5,242,554,242z M553.8,240.7c2.1,0,4-0.7,5.6-2 c1.5-1.4,2.3-3.1,2.3-5v-34.2c0-2.4-1.2-4.3-3.5-5.9c-1.3-0.8-2.8-1.1-4.4-1.1h-9.7c-2.2,0-4,0.7-5.6,2c-1.6,1.4-2.3,3.1-2.3,5 v34.2c0,1.9,0.8,3.5,2.3,4.9s3.4,2.1,5.6,2.1H553.8z"></path> <path class="st0" d="M517.2,240.7h6.3c0.1,0,0.1,0,0.1,0.1v1.1c0,0.1,0,0.1-0.1,0.1h-14c-0.1,0-0.1,0-0.1-0.1v-1.1 c0,0,0-0.1,0.1-0.1h6.3v-48.3h-6.5c-0.1,0-0.1,0-0.1-0.1v-1.1c0,0,0-0.1,0.1-0.1h14.2c0.1,0,0.1,0,0.1,0.1v1.1 c0,0.1,0,0.1-0.1,0.1h-6.3V240.7z"></path> <path class="st0" d="M483.1,241.9v-49.5h-13.4c-0.1,0-0.1,0-0.1-0.1v-1.1c0,0,0-0.1,0.1-0.1H498c0,0,0.1,0,0.1,0.1v1.1 c0,0.1,0,0.1-0.1,0.1h-13.4v49.5c0,0.1,0,0.1-0.1,0.1L483.1,241.9C483.1,242,483.1,241.9,483.1,241.9z"></path> <path class="st0" d="M458.6,233.8c0,2.1-0.9,4-2.7,5.7c-1.9,1.6-4.1,2.4-6.4,2.4h-10c-2.8,0-5.2-1.1-7.3-3.3 c-0.9-1.1-1.5-2.3-1.7-3.5l-0.2-0.8c-0.1,0-0.1,0-0.1-0.1v-43.1c0-0.1,0-0.1,0.1-0.1h1.3c0.1,0,0.1,0,0.1,0.1v42.6 c0,0,0.1,0.4,0.2,1.2c0.5,1.7,1.3,3,2.5,3.9c1.6,1.1,3.2,1.7,5,1.7l0,0l0.1,0.1c0,0,0-0.1,0.1-0.1h9.7l0,0c0.1,0,0.1,0,0.1,0 c2.3,0,4.4-0.9,6.1-2.7c1.1-1.3,1.6-2.7,1.6-4.3V191c0-0.1,0-0.1,0.1-0.1h1.3c0,0,0.1,0,0.1,0.1L458.6,233.8L458.6,233.8z"></path> <path class="st0" d="M390.5,241.9v-50.6c0-0.1,0-0.1,0.1-0.1h1.3c0.1,0,0.1,0,0.1,0.1v49.3h27c0,0,0,0,0,0.1v1.1 c0,0.1,0,0.1,0,0.1h-25C393.2,241.9,392,241.9,390.5,241.9L390.5,241.9z"></path> <path class="st0" d="M377.8,233.7v-34.2c0-2.4-1.2-4.3-3.5-5.9c-1.3-0.8-2.8-1.1-4.4-1.1h-9.7c-2.2,0-4,0.7-5.6,2 c-1.6,1.4-2.3,3.1-2.3,5v34.2c0,1.9,0.8,3.5,2.3,4.9s3.4,2.1,5.6,2.1h9.7c2.1,0,4-0.7,5.6-2C377,237.3,377.8,235.6,377.8,233.7z M350.9,233.8v-34.4c0-2.8,1.5-5.2,4.4-7c1.6-0.8,3-1.2,4.1-1.2l0,0c0.8,0,1.4,0,1.7,0h7.9c0.5,0,1,0,1.7,0 c1.5,0.2,2.6,0.4,3.4,0.8c2.3,1.1,3.8,2.7,4.6,4.8c0.4,0.8,0.5,1.7,0.5,2.6v34.4c0,2.9-1.5,5.2-4.4,7c-1.6,0.8-3.1,1.2-4.7,1.2 H360c-2.9,0-5.4-1.2-7.5-3.5C351.4,236.9,350.9,235.4,350.9,233.8z"></path> <path class="st0" d="M319.2,191.2l0.8-0.1h10.6c2.7,0,5,1,6.9,2.9c1.5,1.6,2.3,3.5,2.3,5.6v2.8c0,0.1,0,0.1-0.1,0.1h-1.3 c0,0-0.1,0-0.1-0.1v-3c0-2.7-1.5-4.9-4.4-6.4c-1.1-0.5-2.3-0.8-3.5-0.8h-9.6c-2.7,0-4.9,1.1-6.6,3.2c-0.9,1.2-1.3,2.4-1.3,3.7v9 c0,2.5,1.3,4.5,3.9,6c1.2,0.6,2.7,0.9,4.5,0.9h8.7c0.1,0,0.3,0,0.4,0c2.5,0,4.7,0.9,6.8,2.7c1.7,1.7,2.5,3.5,2.5,5.5v10.4 c0,2.7-1.3,4.9-4,6.7c-1.7,1-3.4,1.5-5.2,1.5h-9.9c-3,0-5.6-1.2-7.7-3.6c-1.1-1.4-1.7-3-1.7-4.5v-3.2c0-0.1,0-0.1,0.1-0.1h1.3 c0,0,0.1,0,0.1,0.1v2.5c0,2.2,0.7,4,2.1,5.2c1.7,1.6,3.6,2.3,5.9,2.3h9.8l0,0c0,0,0,0,0.1,0c2.4,0,4.4-0.9,6.1-2.8 c1.1-1.3,1.6-2.7,1.6-4.2v-10.2c0-2.6-1.3-4.6-4-6.1c-1.2-0.6-2.4-0.9-3.6-0.9h-0.1h-0.1H321c-3.5,0-6.3-1.4-8.3-4.2 c-0.8-1.3-1.2-2.7-1.2-4v-8.9c0-2.7,1.3-5,3.8-6.8C316.5,191.9,317.8,191.4,319.2,191.2z"></path> </g> </g> </g> <g id="XMLID_10_"> <g> <path class="st2" d="M279.5,249.3c-7.3,13.7-244.2,11.2-250.5,0S20.8,32.4,29,19.8s244.2-13.7,250.5,0 C285.9,33.5,286.8,235.7,279.5,249.3z"></path> </g> </g> <g id="XMLID_3_"> <g> <path class="st0" d="M184.5,133.8l1.2,2.2c-2.1,0.6-4.1,1.4-6.2,2c-17.4,5.1-33.9,10-49,13.6l-59-101.8h63.9L184.5,133.8z"></path> </g> </g> <g id="XMLID_9_"> <g> <path class="st0" d="M188.3,140.3l45.4,78.9h-63.9l-17.3-29.7l-19.1-33c10.2-2.6,20.8-5.6,31.7-8.8 C173,145.3,180.8,142.8,188.3,140.3z"></path> </g> </g> <g id="XMLID_5_"> <g> <polygon class="st0" points="201.5,105.1 187.3,129.5 172.7,105.1 "></polygon> </g> </g> <g id="XMLID_4_"> <g> <polygon class="st0" points="234.8,49.7 211.2,89.8 163.3,89.8 139.6,49.7 "></polygon> </g> </g> <g id="XMLID_7_"> <g> <path class="st0" d="M117.6,138.7l8,13.9c-6.4,1.5-12.5,2.8-18.2,3.9L117.6,138.7z"></path> </g> </g> <g id="XMLID_8_"> <g> <path class="st0" d="M128.6,157.7l21,36.4l-14.7,25.2H71.6l31.8-55.8C111.4,161.8,119.8,159.9,128.6,157.7z"></path> </g> </g> <g id="XMLID_6_"> <g> <path class="st0" d="M270.4,102.8l2.3-1l0.5-0.2c-17.4,10.2-59.1,26.2-108.8,41.1c-67,20.1-123.1,30.6-125.2,23.4 c-2.1-6.8,23-17.5,60.6-30.8l0.4,0.2c-28.6,10.9-46.8,20-45.6,23.8c1.9,6.4,57.8-4.7,124.8-24.8 C216.3,123.5,248.9,112,270.4,102.8z"></path> </g> </g> </g> </svg> 