<svg xmlns="http://www.w3.org/2000/svg" width="226.652" height="50.012" viewBox="0 0 226.652 50.012"><g fill="#0079BA"><path d="M12.24 11.53c0 6.353 5.172 11.528 11.526 11.528 6.356 0 11.526-5.175 11.526-11.53C35.292 5.173 30.122 0 23.766 0 17.412 0 12.24 5.172 12.24 11.53m1.625 0c0-5.46 4.442-9.904 9.9-9.904 5.462 0 9.904 4.445 9.904 9.903 0 5.46-4.443 9.902-9.904 9.902-5.46 0-9.9-4.442-9.9-9.903"/><path d="M0 24.982c0 6.36 5.172 11.53 11.53 11.53s11.528-5.17 11.528-11.53c0-6.354-5.17-11.53-11.53-11.53C5.173 13.452 0 18.628 0 24.982m1.622 0c0-5.46 4.445-9.9 9.907-9.9 5.46 0 9.902 4.44 9.902 9.9 0 5.464-4.442 9.905-9.903 9.905-5.462 0-9.908-4.44-9.908-9.905"/><path d="M12.24 38.484c0 6.354 5.172 11.527 11.526 11.527 6.356 0 11.526-5.172 11.526-11.526 0-6.355-5.17-11.53-11.526-11.53-6.354 0-11.527 5.175-11.527 11.53m1.625 0c0-5.46 4.442-9.902 9.9-9.902 5.462 0 9.904 4.44 9.904 9.902 0 5.46-4.443 9.9-9.904 9.9-5.46 0-9.9-4.44-9.9-9.9"/><path d="M24.622 24.982c0 6.36 5.173 11.53 11.53 11.53 6.356 0 11.53-5.17 11.53-11.53 0-6.354-5.174-11.53-11.53-11.53-6.357 0-11.53 5.176-11.53 11.53m1.627 0c0-5.46 4.44-9.9 9.902-9.9 5.462 0 9.904 4.44 9.904 9.9 0 5.464-4.442 9.905-9.904 9.905-5.46 0-9.903-4.44-9.903-9.905M21.33 13.005h1.625v23.827H21.33z"/><path d="M24.72 13.005h1.626v23.827H24.72z"/><path d="M11.927 25.804h23.825v1.624H11.927zM11.927 22.41h23.825v1.627H11.927zM152.77 27.104l-6.9-8.72h-4.337v17.08h3.18v-13.68l6.623 8.32.048.102 2.762.035s6.19-7.764 6.71-8.418v11.583c0 2.026 2.95 2.24 2.976 2.244l.21.014v-17.28h-4.337s-6.633 8.345-6.934 8.72M85.17 35.578h-.032v.002zM124.175 18.69v-.027l-.01-.16h-19.023v2.208h7.768v14.87h3.5V20.71h4.69c1.07 0 1.888-.232 2.427-.698.617-.54.648-1.19.648-1.322M202.948 20.013c.618-.54.647-1.19.647-1.322v-.026l-.007-.16H184.56v2.207h7.768v14.87h3.506V20.71h4.68c1.073 0 1.895-.232 2.434-.697M167.83 20.605c-1.61 1.467-2.428 3.62-2.428 6.395 0 2.778.817 4.932 2.428 6.395 1.596 1.455 3.858 2.165 6.904 2.165h8.463v-2.415h-7.594c-.934 0-1.746-.094-2.42-.285-.664-.192-1.22-.434-1.657-.725a4.723 4.723 0 0 1-1.673-2.086c-.04-.107-.123-.366-.38-1.424V28.15h13.724v-2.292h-13.724V25.368c.212-.892.433-1.534.67-1.95.35-.636.818-1.15 1.383-1.546a5.835 5.835 0 0 1 1.714-.83c.657-.184 1.474-.274 2.43-.274l7.507-.04.02-2.285h-8.463c-3.046 0-5.308.71-6.904 2.162"/><path d="M124.12 20.605c-1.612 1.467-2.43 3.62-2.43 6.395 0 2.778.818 4.932 2.43 6.395 1.6 1.455 3.857 2.165 6.903 2.165h8.463v-2.415h-7.592c-.935 0-1.748-.094-2.42-.285-.666-.192-1.226-.434-1.662-.725a4.675 4.675 0 0 1-1.67-2.086c-.04-.107-.123-.366-.377-1.424 0 0-.005-.008-.008-.02v-.457h13.73v-2.292h-13.73v-.463l.008-.027c.212-.892.427-1.534.663-1.95a4.48 4.48 0 0 1 1.384-1.546 5.836 5.836 0 0 1 1.718-.83c.657-.184 1.473-.274 2.427-.274l7.506-.04.023-2.285h-8.463c-3.046 0-5.304.71-6.904 2.162M84.974 35.663h3.334v-13.18l10.216 11.27c1.785 1.977 5.084 1.916 5.222 1.91l.195-.005V18.584h-3.334v13.32c-.56-.615-10.722-11.865-10.722-11.865-1.602-1.774-4.61-1.468-4.74-1.456l-.17.024v16.89M72.277 12.31s-.003-.007-.003-.013l-.005.006c-.175.02-4.028.946-5.05 2.826L56.936 35.676h3.532l3.117-6.42h12.57s.273.45 1.492 3c1.8 3.753 6.37 3.347 6.625 3.35-.312-.57-11.995-23.298-11.995-23.298m-7.523 14.548l5.02-10.263 5.192 10.28-10.212-.017zM199.317 35.607c.256-.002 4.826.404 6.623-3.35 1.222-2.55 1.497-2.998 1.497-2.998h12.572l3.112 6.418h3.53l-10.282-20.55c-1.02-1.88-4.875-2.804-5.045-2.824l-.007-.006c-.003.006-.003.01-.003.01s-11.685 22.728-11.998 23.3m9.31-8.732l5.19-10.28 5.022 10.262-10.214.018z"/></g></svg>