<svg xmlns="http://www.w3.org/2000/svg" viewBox="0 0 24 24" fill="#336791"><path d="M23.56 14.72c-.14-.26-.48-.34-1.01-.23-1.65.34-2.29.13-2.52-.02 1.34-2.05 2.44-4.52 3.04-6.83.27-1.05.8-3.52.12-4.73a1.56 1.56 0 0 0-.15-.24C21.69.91 19.8.02 17.5 0c-1.49-.01-2.77.35-3.11.48a9.4 9.4 0 0 0-.52-.08A8.04 8.04 0 0 0 12.56.28C11.38.26 10.36.55 9.51 1.12 8.66.8 4.72-.52 2.29 1.21.94 2.15.31 3.87.43 6.3c.04.82.51 3.34 1.24 5.74.46 1.51.94 2.7 1.43 3.58.55.99 1.13 1.6 1.71 1.79.45.15 1.13.14 1.86-.73.8-.96 1.59-1.83 1.94-2.21.43.24.91.36 1.39.38v.01c-.08.1-.16.2-.25.3-.34.43-.41.52-1.5.74-.31.07-1.13.23-1.15.81 0 .12.03.23.09.33.23.42.92.61 1.02.63 1.33.33 2.5.09 3.37-.68-.02 2.23.08 4.42.35 5.09.22.55.76 1.9 2.47 1.9.25 0 .53-.03.83-.09 1.78-.38 2.56-1.17 2.86-2.91.15-.87.4-2.87.54-4.1.02-.07.04-.12.06-.14 0 0 .07-.05.43.03h.04l.25.02c.85.04 1.91-.14 2.53-.43.64-.3 1.81-1.03 1.6-1.67z"/></svg>