<?xml version="1.0" encoding="UTF-8"?>
<svg id="svg4060" xmlns="http://www.w3.org/2000/svg" xmlns:svg="http://www.w3.org/2000/svg" version="1.1" viewBox="0 0 184.97 162">
  <!-- Generator: Adobe Illustrator 29.7.0, SVG Export Plug-In . SVG Version: 2.1.1 Build 138)  -->
  <defs>
    <style>
      .st0 {
        fill: #e57000;
      }

      .st0, .st1 {
        fill-rule: evenodd;
      }
    </style>
  </defs>
  <path id="path55" class="st1" d="M51.93,4.79c-3.61,0-6.75.65-9.8,1.94-2.96,1.29-5.55,3.05-7.86,5.36l58.36,64L150.89,12.1c-2.31-2.31-4.9-4.07-8.05-5.36-2.87-1.29-6.19-1.94-9.62-1.94-3.61,0-7.03.74-10.08,2.13-3.14,1.39-5.73,3.42-8.14,5.83l-22.38,24.79-22.66-24.79c-2.31-2.4-4.9-4.44-8.14-5.83-2.87-1.39-6.29-2.13-9.9-2.13ZM92.62,85.81l-58.36,64.1c2.31,2.22,4.9,4.07,7.86,5.36,3.05,1.29,6.2,1.94,9.62,1.94,3.79,0,7.03-.83,10.08-2.13,3.24-1.48,6.01-3.42,8.32-5.83l22.48-24.79,22.47,24.79c2.31,2.4,4.9,4.35,8.05,5.83,3.05,1.29,6.38,2.13,10.08,2.13,3.42,0,6.75-.65,9.62-1.94,3.14-1.29,5.74-3.14,8.05-5.36l-58.27-64.1Z"/>
  <path id="path69" class="st0" d="M23.81,24.03c-3.7.09-7.31.83-10.54,2.22-3.33,1.39-6.2,3.33-8.69,5.74l44.58,49.02L4.57,129.93c2.5,2.5,5.36,4.44,8.69,5.92,3.24,1.48,6.84,2.13,10.54,2.31,3.98-.18,7.68-.83,11.1-2.49,3.42-1.57,6.38-3.7,8.88-6.39l43.93-48.28-43.93-48.19c-2.68-2.59-5.55-4.72-8.97-6.38-3.42-1.57-7.03-2.31-11.01-2.4ZM161.06,24.03c-3.98.09-7.49.83-10.92,2.4-3.42,1.66-6.38,3.79-8.97,6.38l-43.75,48.19,43.75,48.28c2.59,2.68,5.55,4.81,8.97,6.39,3.42,1.66,6.94,2.31,10.92,2.49,3.98-.18,7.4-.83,10.63-2.31,3.51-1.48,6.2-3.42,8.69-5.92l-44.49-48.93,44.49-49.02c-2.5-2.4-5.18-4.35-8.69-5.74-3.24-1.39-6.66-2.13-10.63-2.22Z"/>
</svg>